<svg style="height: 50vh" xmlns="http://www.w3.org/2000/svg" x="0" y="0" viewBox="0 0 312.1 316.9" xml:space="preserve" enable-background="new 0 0 312.07 316.91"><path d="M135.5 36c.5 1 1 3 1 9V82c0 5.2-.6 7-1 8-1 2.1-3 3.3-5.6 3.3a5.7 5.7 0 0 1-5.6-3.5c-.5-1-1-3-1-8.6V45c0-6 .5-8 1-9 1-2.2 3-3.4 5.6-3.4 2.7 0 4.7 1.2 5.6 3.4zM160 199.6a21.5 21.5 0 0 1-8.8 3.2c-4.7.7-9.5-1.5-12.5-5.2a13.7 13.7 0 0 1-9.4 4.8c-2 .1-4.4-.4-6.2-1.5a18.8 18.8 0 0 1-5.1-5.3c-1-1.4-.2-3.4 1-4.3 1.6-1 3.4-.2 4.4 1.2l.2.2.1.2.5.6a17.3 17.3 0 0 0 1.4 1.4 10.1 10.1 0 0 0 .8.6l.5.3.9.2.5.1h1.6l1-.3.6-.3 1-.7h.1l.6-.5 1-1 .9-1 .2-.4.5-.6c-.2-2.1 0-4.2.4-6.3-1-.5-2.1-1.2-3-2-1.3-1.3-1.2-3.3 0-4.5 1-1.3 3.2-1.1 4.4 0l.3.3 1 .6 1 .2h1.2a8 8 0 0 0 1.1-.3l1.2-.6c1.4-1 3.4-.3 4.3 1 .4.8.5 1.8.3 2.5-.2.8-.8 1.4-1.4 1.9a11 11 0 0 1-4.1 1.7l-.1.4-.3 1-.1.8v2.1l.2.8.2 1 .1.1 1 1.6v.2l.7.6.6.5.1.1 1.4.9.4.1c.3.2.2.2-.2 0l.8.3c.3 0 1.5.5 1.7.4h-.2.5a8.4 8.4 0 0 0 1.2 0l1-.3a19.5 19.5 0 0 0 3-1l.6-.2a16 16 0 0 0 1.7-1c1.5-1 3.5-.3 4.3 1.1 1 1.5.3 3.4-1.1 4.3zm-30.1-3.5h-.4.4zm1-.3c-.2 0-.3.1 0 0zm29.7-18.7c.2.8.7 1.5 1.4 1.9.8.4 1.6.5 2.4.3l1.1.3 1 .1h.2a6.8 6.8 0 0 0 1-.1c1-.4 1.8-1 2.3-1.9l.4-1.1.2-1.4v-1.3c0-.7-.2-1.3-.6-2a13.9 13.9 0 0 0-1.4-1.7 4.7 4.7 0 0 0-1.9-1c-.3 0-.6-.2-1-.1a3.8 3.8 0 0 0-2.6 1l-.1.2-.6.7-1 .7-.7 1c-.2.4-.2.8-.2 1.2 0 .4 0 .8.2 1.2l-.2.7v1.3zm-40.7-.2 1 .2c.8.2 1.5.3 2.3 0l.8-.3.7-.6.6-.7.1-.2.5-1.1.2-1.4V171l-.2-.8-.2-.4-.2-.3a15.5 15.5 0 0 0-1.4-1.8 4.7 4.7 0 0 0-1.9-1l-.9-.2c-.3 0-.7 0-1 .2l-.9.3-.8.6-.1.2-.6.7c-.4.2-.8.4-1 .7-.4.3-.6.6-.7 1l-.3 1.2.3 1.2-.2.7v1.3c.3.7.8 1.5 1.5 1.8.7.4 1.6.6 2.4.4zM299.3 212c-.1-.2-.3-.3 0 0zm12.6 70.3a3.2 3.2 0 0 0-3.8-2.1l-6.5 1-3.8.5c-.8.1-1.5.3-2.2 1-.5.5-1 1.4-.9 2.2 0 .8.3 1.6 1 2.2.5.5 1.3 1 2.1.9 4-.5 8-1 12-1.8 1.6-.3 2.6-2.3 2.1-3.9zm-302 1.4-.7-.3c-1.7-.7-3.4-1.7-5.2-2.3a3.2 3.2 0 0 0-3.9 2.2c-.2.8-.1 1.7.3 2.4.5.7 1 1.2 1.9 1.5l.6.2c1.7.8 3.4 1.7 5.2 2.3a3.2 3.2 0 0 0 4-2.2c0-.8 0-1.7-.4-2.4-.5-.7-1-1.1-1.9-1.4zm75.8 22.1c-.5-.5-1.4-.9-2.2-.9-.8 0-1.7.4-2.2 1-.6.5-1 1.3-1 2.2.1.8.4 1.6 1 2.2l5.6 5.6c.6.6 1.4 1 2.2 1 .8 0 1.7-.4 2.3-1 .5-.6 1-1.4.9-2.2 0-.8-.4-1.6-1-2.2-1.8-2-3.7-3.8-5.6-5.7zm187.4-5.5c-.6-.6-1.4-1-2.2-1-.8 0-1.7.4-2.3 1-.5.6-1 1.4-.9 2.2 0 .8.3 1.6 1 2.2l5.5 5.6c.6.6 1.5 1 2.3 1 .7 0 1.7-.4 2.2-1 .5-.6 1-1.3 1-2.2-.1-.8-.4-1.6-1-2.2l-5.6-5.6zm16.1-33.8-.1-.2.1.2zm13.6-49.2v.1-.1zM295 269c-1.3 3.7-4.9 6.1-8 8-3.5 2-7.3 3.6-11.1 5-12 4.1-24.7 5.7-37.2 7-11.4 1-22.9 1.5-34.3 1.8-24.2.7-48.4.6-72.6-.2-20-.7-40.3-1.6-60.2-4.6-3.6 1.6-7.3 3-11 4.3-.9.3-1.8.1-2.5-.4-.5-.2-.9-.6-1.1-1.2a23.2 23.2 0 0 1-1.1-6.2h-.6c-3.2-.9-6.4-1.8-9.4-3.1-4.5-1.9-9.8-4.5-11.8-9.2-1-2.1-.8-4.6.5-6.6 1.5-2.4 4-4 6.4-5.2 1.6-.7 3.4-.4 4.3 1.2 1 1.3.4 3.5-1 4.3-.9.3-1.6.7-2.3 1.2l-.7.4-.6.5-.6.6v.1l-.3.3v.9l.4.6.1.1 1.1 1.1.4.4a23.2 23.2 0 0 0 2.2 1.4l.9.5c1.7-2.5 7.3-5.6 14.7-7.1a469.1 469.1 0 0 1 16-62c1-4.3 2.3-8.5 3.8-12.7a48.8 48.8 0 0 1-22.3-11.1c-1.3-1.1-1.2-3.3 0-4.5 1.2-1.2 3.1-1 4.4 0a37.5 37.5 0 0 0 11.3 7.1c2.8 1.2 5.8 2 8.8 2.5l1-2.6 1.4-3.2c-3-1.3-6-2.8-8.8-4.5-6-3.6-11.4-8.2-15.3-14-1-1.4-.2-3.4 1.2-4.3 1.5-.9 3.3-.2 4.3 1.2 3.2 4.8 8.2 8.8 13.3 11.9a62 62 0 0 0 7.9 4c4.3-9.2 9.2-18.1 14.4-26.9 4.9-8.3 10.2-16.4 15.2-24.6l.1-.1.2-.2c0-.1 0-.2.2-.3.5-.6 1.5-1 2.2-1 .9 0 1.6.4 2.2 1 1.6 1.3 2.9 3 4 4.7a47 47 0 0 1 14.6-18.7 49 49 0 0 1-24.3-1A21.7 21.7 0 0 1 100 88.2c-.5 2.6-1.2 4.9-2 6.7-2 4-5.7 7.2-11 9.7-5 2.4-11 3.7-17.6 3.7-7.3 0-13.7-1.5-19-4.3a22 22 0 0 1-10.8-11.4 53 53 0 0 1-2.4-18.1V68a3 3 0 0 1 3-3h20.5l-3.2-2c-6.5-4.4-10.8-7.5-13-9.5a24.5 24.5 0 0 1-5.9-9 37.8 37.8 0 0 1-2.2-14c0-8 1-14 3.2-17.9 2.3-4 5.9-7.2 10.7-9.4A40.3 40.3 0 0 1 67.1 0c7 0 13.1 1.2 18.2 3.5C90.6 5.9 94.2 9 96 13A45 45 0 0 1 98.5 31v3.9a3 3 0 0 1-3 3H72.8l.6.3a74.4 74.4 0 0 1 22.4 17.5 24 24 0 0 1 3.1 6.8v-9.6c0-8 .9-14 2.6-18.6 1.9-4.8 5.2-8.7 10-11.6a33.8 33.8 0 0 1 17.7-4.3c5.9 0 11 1 15.3 2.7a25.7 25.7 0 0 1 15.2 16.5c.5 1.5.8 3.3 1 5.5V22.7a3 3 0 0 1 3-3H188a3 3 0 0 1 2.2 1c.5.6.8 1.4.7 2.2 3.2-2.7 7-4.3 11.4-4.6a3 3 0 0 1 3.2 2.9 3 3 0 0 1 2.5-1.4h24.5a3 3 0 0 1 2.2 1c.5.5.8 1.3.7 2.1 3.2-2.7 7-4.3 11.4-4.6a3 3 0 0 1 2.8 1.5h22.5a3 3 0 0 1 3 2.5l4 27.8 2-27.6a3 3 0 0 1 3-2.7h22.2a3 3 0 0 1 2.2 1c.6.6.8 1.5.7 2.3l-7 58.3c-1.1 9.4-2 15.6-2.8 19.1-.9 3.8-2.3 7-4.3 9.5a18 18 0 0 1-8.7 5.8 53.3 53.3 0 0 1-15.7 1.7h-15a3 3 0 0 1-2.9-3v-12.8a3 3 0 0 1 3-3 36 36 0 0 0 6-.3l-1.4-7.7L250 38.4v11.2a3 3 0 0 1-3 3c-4.8 0-7.2.8-8.3 1.4a4.7 4.7 0 0 0-2.5 3.2c-.3 1.3-.7 4.9-.7 14.3v31.8a3 3 0 0 1-3 3h-24.4a3 3 0 0 1-3-3V51.2a3 3 0 0 1-2.5 1.4c-5 0-7.3.8-8.4 1.4a4.7 4.7 0 0 0-2.5 3.2c-.3 1.3-.7 4.9-.7 14.3v31.8a3 3 0 0 1-3 3h-7.2a47.9 47.9 0 0 1 5.8 7.4c2.4 3.7 4.4 7.6 6 11.6l6.2 11.8c5.9 11.3 11.7 22.6 16.9 34.3l.6-.6c1.4-1 3.2-1.3 4.5 0 1 1.1 1.3 3.4 0 4.5l-2.6 2 1 2.6 10.5-17c1-4 1.2-8 .8-12.2l-.1-.5v-.4l-.2-1.2-.5-2.1-.7-2.9V142l.4-.7v-.1l.2-.3a3 3 0 0 1 1.3-1l.3-.1c.6-.2 1.2-.2 1.7 0 8.9 3.1 18 5.4 26.8 8.4l8.1-13.5c2.8-4.6 5.7-9.1 8.1-14 .8-1.4 2.9-1.9 4.3-1 5.6 2.5 8.4 8.8 9.2 14.6a37 37 0 0 1-1.3 17c-2 6-6.1 10.7-11.1 14.4a60.5 60.5 0 0 1-15.8 8l-6.8 2.5-.4.1-.5.2-1.2.6-1.3.7-.3.3-8 12.1-9.8 14.2.2.3c2.6 4.1 5 8.3 7.5 12.5 3 5.3 6 10.8 8.5 16.4A68 68 0 0 1 268 210c9-7 22-12.6 32.4-5.3a23.5 23.5 0 0 1 3 2.5c-.2-.2-1-.8.3.3l.5.5c1 1 2 2 2.8 3.3 2.6 3.8 2.8 8.8.3 12.8-1.7 2.6-4 4.4-6.5 6.3l-.5.4-.5.4-1.4 1.1a125.7 125.7 0 0 0-21.1 23l10.8 2.9c.2 0 .5.1.7.3 4 1.9 8.1 5.7 6.3 10.5zM253.5 25.7l12.8 63.8c1.5 7.8 1.5 8.6 1.5 9 0 2.6-1.3 4.6-3.6 5.4-.8.3-2 .6-5.4.7v7h12c6.4 0 11-.5 13.8-1.4 2.6-.9 4.5-2.1 6-3.9 1.4-1.8 2.4-4.2 3-7a233 233 0 0 0 2.8-18.7l6.6-55h-16l-3.8 51.7a3 3 0 0 1-5.9.2l-7.7-51.8h-16zM211 100.3h18.6V71.5c0-10.8.5-14.1.8-15.6.7-3 2.5-5.4 5.3-7 2-1.2 4.8-1.9 8.4-2.1v-22c-4.1 1.3-7.3 4.5-9.8 9.8a3 3 0 0 1-5.7-1.5l.7-7.4H211v74.6zM94.7 78.2c0-9-1.3-15.5-3.9-19.3A71 71 0 0 0 70.3 43c-4.6-2.6-7.2-5-8.4-7.2-1-2-1.6-5-1.6-8.7 0-3.2.5-5.5 1.6-7.3a6.8 6.8 0 0 1 6-3.3c3.2 0 4.9 1.8 5.5 2.8 1 1.5 1.4 3.9 1.4 8v4.4h17.8v-1a39 39 0 0 0-2-15.3c-1.2-2.6-3.8-4.8-7.8-6.6-4.3-2-9.6-3-15.7-3-5.7 0-10.5 1-14.4 2.7-3.7 1.7-6.3 4-8 6.9-1.6 3-2.4 8-2.4 15 0 4.9.6 8.9 1.8 11.8 1.2 3 2.6 5.3 4.4 6.9 2 1.8 6 4.7 12.2 8.8a75 75 0 0 1 12.5 9.4c2.2 2.5 3.2 6.7 3.2 13.4a14 14 0 0 1-1.7 7.5 7.1 7.1 0 0 1-6.3 3.4c-3.5 0-5.2-1.6-6-3-1-1.6-1.5-4.2-1.5-8.7v-9H43v3.5c0 7 .7 12.4 2 16a16 16 0 0 0 8.1 8.4 34 34 0 0 0 16.2 3.5c5.7 0 10.8-1 15-3.1 4.1-2 6.9-4.3 8.2-7 1.4-2.9 2.2-7.6 2.2-14.1zM39.9 267.4v-.2.1zm163-48a7202 7202 0 0 1-23.5 38.6c3.6-1.2 7.5-2.3 11.3-2.3 4-6.4 8.3-12.7 12.5-19 8.2-12.1 16.6-24.2 25-36.3 5.8-8.5 11.8-17 17.3-25.8l.7-1h.1l.5-.4c3.8-2.7 8.5-4 12.8-5.6l3.7-1.4.6-.3c.3 0 .5-.2.7-.3a44.8 44.8 0 0 0 9-5.1l.7-.5.8-.7a37.8 37.8 0 0 0 4.3-4.6 21.2 21.2 0 0 0 2.2-3.8l.2-.4a28 28 0 0 0 1.4-5.1l.2-1.2V144a40.7 40.7 0 0 0 0-7.7v-.5l-.1-.9-1-3.5-.2-.7-.3-.6a14.3 14.3 0 0 0-1.3-2.2v-.2l-.7-.6c-2 3.6-4.3 7.2-6.5 10.8-3 5.2-6.3 10.3-9.3 15.6-1 1.8-3 1.8-4.4 1l-1.4-.1c-7.2-2.4-14.6-4.4-21.8-6.8a39.8 39.8 0 0 1-.9 18v.2l-9.3 15-4 6.8c3.2-1.2 5.8 3.7 2.5 5.7a74.6 74.6 0 0 1-8.7 4.4l-13.1 21.8zm-36.3-119h18.6v-29c0-10.7.5-14 .8-15.5.7-3 2.5-5.4 5.3-7 2-1.2 4.8-1.9 8.4-2.1v-22c-4 1.3-7.3 4.5-9.8 9.8A3 3 0 0 1 184 33l.7-7.4h-18.3v74.6zm-36.4 1.4c4.5 0 8.5-.7 11.9-2A19.6 19.6 0 0 0 154 86c.7-3.1 1-8.2 1-15.2V51c0-5.4-.3-9.4-1-12a20 20 0 0 0-11.8-12.6c-3.6-1.4-8-2.1-13.1-2.1a28 28 0 0 0-14.6 3.4 17 17 0 0 0-7.5 8.6 48 48 0 0 0-2.3 16.5v20.6c0 6.6.5 11.5 1.3 14.7.7 3 2 5.5 3.8 7.5a16 16 0 0 0 7.4 4.5 44 44 0 0 0 13 1.7zm22-1.3c2.8-.7 5.6-1 8.5-.7V81a48 48 0 0 1-.8 6.2 25.4 25.4 0 0 1-7.6 13.2zm-28.8 40.8.2.3h.1l1.3.7.5.2.3.1a30 30 0 0 0 3.9 1.3 87 87 0 0 0 43.4-3.3c3-6.2 7.2-11.8 12.1-16.8l-.4-.7a80 80 0 0 0-5.4-9l-.4-.6-.1-.1-.1-.1a40.9 40.9 0 0 0-2.4-2.6c-1.2.6-2.5 1.3-3.7 2.1l-1.1.8-.6.4-.2.2a41.2 41.2 0 0 0-8.3 8.4l-.1.1-.4.6c-1 1.4-2.6 2-4.3 1-1.4-.6-2.1-2.9-1.1-4.2 4-5.5 9-10.4 15-13.9h-8a21 21 0 0 0-4 1l-.4.2-.6.3-.7.3-2.6 1.6-.2.2-.6.5a20.5 20.5 0 0 0-2.1 2.2l-.5.5-.2.2a31.4 31.4 0 0 0-4.3 8.4 3.2 3.2 0 0 1-4 2.2c-1.5-.4-2.6-2.3-2.1-3.9 1.2-3.6 3-7.1 5.3-10.2a39 39 0 0 0-15 17c-.5.8-.5.9-.8 1.8a31 31 0 0 0-1.4 4.6l-.2 1v.7l-.2.9c.3 1.4-.3 3-2.1 3.6-1.1.3-1.8.5-2.8 1.2l-.4.3-.3.3c.2-.1 0 0 0 .2zm.1.3c0-.1-.1-.1 0 0zm-.2-.2zm0 0c0 .2 0 .2 0 0zm0 0c0 .3 0 .5 0 0zm36 136.8c1.1-1.8 2.3-3.7 3.2-5.7a25 25 0 0 1-1.2-5c-.3-1.8.4-3.3 2.2-3.8l6.5-2.4a5096.8 5096.8 0 0 0 37-60.9 80.6 80.6 0 0 1-20.9.8c-1.7-.2-3.1-1.4-3.1-3.2 0-1.6 1.4-3.2 3.1-3.1a121.4 121.4 0 0 0 17.2-.2 41.7 41.7 0 0 0 8.4-2.1l3.9-6.5a4 4 0 0 1-1-1.5l-1.6-3.8a51.7 51.7 0 0 1-31.1 8c-1.7 0-3.1-1.3-3.1-3.1 0-1.6 1.4-3.3 3.1-3.2a46 46 0 0 0 28.6-7.4l-1.6-3.9c-6.4-14-13.8-27.6-20.9-41.3a67 67 0 0 0-3.7 4.4l-.1.1-.5.6-.8 1.2a57.2 57.2 0 0 0-6 11.2c-.7 1.6-2.1 2.6-4 2.2-.8-.2-1.5-1-2-1.8a88.6 88.6 0 0 1-41.9 2.4c-2.3-.6-4.5-1.3-6.6-2.2-2.2-1-4.2-2.3-5-4.7-1.7-4.3 1.9-7.6 5.6-9.3V133.2l-3.5-5-5.2 8.3a414.3 414.3 0 0 0-21.6 38.4l2.6.7c1.7.4 2.6 2.3 2.2 3.9a3.2 3.2 0 0 1-3.9 2.2 56 56 0 0 1-3.5-1L88 185h1.2c4 0 4 6.3 0 6.3l-3.5-.1c-1.6 4.4-3 9-4.1 13.5a524.6 524.6 0 0 0-14.1 53.4l.6.3c1.4.8 2 2.9 1.1 4.3a43 43 0 0 0-5.8 11.8c-.9 2.9-1.4 5.8-1.2 8.7a97.4 97.4 0 0 0 21.2-11.4c1.4-1 3.5-.2 4.3 1.2 1 1.5.2 3.2-1.1 4.3A77.3 77.3 0 0 1 81 281l4.4.6 16.9 1.4c17.6 1.2 35.3 1.8 53 2 1-2.4 2.3-4.6 3.7-6.8zm12 6.9c-2-1.7-3.8-3.7-5.3-5.9a162.5 162.5 0 0 1-3.6 5.9h8.9zm86-4.8c-.8-6-2.1-12-3.8-18A211.9 211.9 0 0 0 229 210l-9.3 13.5a1379.8 1379.8 0 0 0-25.1 37.4c-.6.7-1.4 1.1-2.3 1-1 0-2.1 0-3.2.2h-.2l-.9.2c-.6 0-1.1.2-1.7.3a77 77 0 0 0-7.6 2.2c-3.6 1.2-7.2 2.6-10.8 4a25.2 25.2 0 0 0 13 15.3c.5.3.8.6 1 1 19-.2 38-.7 56.9-2.3 6.2-.6 12.3-1.4 18.4-2.5zm5-7.9a77.4 77.4 0 0 1 18-31 126.9 126.9 0 0 1 16.1-15.4c1.8-1.4 4.2-3 5.4-4.8l.6-1 .1-.2.4-1.3V217.2l-.4-1.2v-.1l-.2-.5-.5-1-.5-.6-1.7-1.7-.1-.1.5.4-1.8-1.6c-.8-.8-1.8-1.4-2.9-2-4.3-2-9.4-1.4-14 .4l-.8.3-.6.3a39.8 39.8 0 0 0-10.8 7.5 63 63 0 0 0-10.1 11.6 36.3 36.3 0 0 0-6.1 12.8c4 10 7.3 20.1 9.4 30.6zm26.5-4.4c0-.1.2-.3 0 0zm.6-1.2v-.2l-.1-.1-.1-.2c-.2-.3-.3-.3 0 0l-.4-.4-.6-.5a17 17 0 0 0-2-1.2l-12.4-3.4a58.7 58.7 0 0 0-3.2 6.5c4.1.6 10.2 2.7 9.8 6.3a53.3 53.3 0 0 0 5.1-2.9l1-.7.3-.2.2-.1 1.7-1.7.2-.2.4-.7v-.3zm-31.1-143-.1.8a3 3 0 0 1-.4 2.4L250 140v.1a2.9 2.9 0 0 1-.4.4l-.7.6a3 3 0 0 1-1.4.4h-1c-1.2-.3-2.4-.9-3.5-1.5l-3.5-2.6-1.5-1.2a50.4 50.4 0 0 0-1-.8 28.7 28.7 0 0 0-1.8-1.3c-.3-.1-1.1-.4 0 0l-.3-.1h-.1l-.2-.1-.7-.6a2.7 2.7 0 0 1-.8-1.3l-.1-.3v-1.4c.2-.5.4-.9.8-1.3a26 26 0 0 1 21.3-8.3c1.8.1 3.1 1.4 3.2 3.2zm-7.8 3.1h-.6v.1l-.6.1a25.2 25.2 0 0 0-3.6 1l-.6.2-1.2.6a19.2 19.2 0 0 0-2.7 1.6v.1l2.3 1.9a17.7 17.7 0 0 0 1 .8l1.5 1 4.5-7.4zm-4.8 35.4c.3.5.7.9 1.1 1.2a14.8 14.8 0 0 0 2.8 1c.4.3.8.4 1.2.5l1.3-.1c.4-.1.7-.3 1-.6.4-.2.6-.5.8-.8l.4-.8V161l-.4-.7c-.2-.5-.6-.9-1-1.1-.7-.4-1.4-.6-2-.8l-.9-.3c-.4-.3-.7-.4-1.2-.4h-1.2c-.4.1-.8.3-1 .6-.4.2-.7.5-.9.9l-.3.7c-.2.6-.2 1.1 0 1.7l.3.7zm-120.3-9.5a3.2 3.2 0 0 0-4.5 0l-.8.7-.2.2-.2.1a30.4 30.4 0 0 1-3.6 2.3l-1 .5a28.6 28.6 0 0 1-6.4 1.8h-.7l-1 .2c-1.7 0-3.3 1.3-3.2 3.1 0 1.6 1.3 3.2 3.1 3.1 6.9-.4 13.3-3 18.4-7.5 1.3-1.1 1.3-3.4 0-4.5zm61.1 15.2c1.7.1 3.2-1.5 3.2-3.1-.1-1.8-1.4-3-3.2-3.1a34.8 34.8 0 0 1-9.6-2.1l-.8-.4a24 24 0 0 1-3.2-1.6 33 33 0 0 1-2.3-1.4l-1-.8-.6-.4-.2-.1c-1.2-1-3.2-1.4-4.4 0-1 1.1-1.4 3.3 0 4.4 6.4 5.1 14 8.1 22.1 8.6zm-4.4-14.3c2.1 1.4 5.9 1.8 8.8 2 .8 0 1.5-.6 1.5-1.5-.2-4-3-8-3.5-12.2 0-.6 0-1.3-.3-2-.2-.6-.7-1.1-1.3-1.3-1.2-.2-2 1-2.6 2-1 2-1.8 4.3-2.4 6.5-.6 2.3-2.7 4.8-.2 6.5z" fill="#bcbcbc"/></svg>